<mxfile host="app.diagrams.net" modified="2024-02-23T02:59:47.817Z" agent="Mozilla/5.0 (Windows NT 10.0; Win64; x64) AppleWebKit/537.36 (KHTML, like Gecko) Chrome/121.0.0.0 Safari/537.36" etag="vNIBd2sSiWaUT6wdGVIO" version="23.1.5" type="github">
  <diagram name="페이지-1" id="nMyIBUkEVWgzLtlZiF8V">
    <mxGraphModel dx="278" dy="556" grid="1" gridSize="10" guides="1" tooltips="1" connect="1" arrows="1" fold="1" page="1" pageScale="1" pageWidth="827" pageHeight="1169" math="0" shadow="0">
      <root>
        <mxCell id="0" />
        <mxCell id="1" parent="0" />
        <mxCell id="QpIzt2UrSME0j5kqxRWE-1" value="게시글 작성" style="ellipse;whiteSpace=wrap;html=1;" vertex="1" parent="1">
          <mxGeometry x="319" y="47" width="120" height="80" as="geometry" />
        </mxCell>
        <mxCell id="QpIzt2UrSME0j5kqxRWE-17" value="&amp;lt;&amp;lt;include&amp;gt;&amp;gt;" style="rounded=0;orthogonalLoop=1;jettySize=auto;html=1;exitX=1;exitY=0.5;exitDx=0;exitDy=0;entryX=0;entryY=0.5;entryDx=0;entryDy=0;dashed=1;" edge="1" parent="1" source="QpIzt2UrSME0j5kqxRWE-2" target="QpIzt2UrSME0j5kqxRWE-8">
          <mxGeometry relative="1" as="geometry" />
        </mxCell>
        <mxCell id="QpIzt2UrSME0j5kqxRWE-2" value="게시글 삭제" style="ellipse;whiteSpace=wrap;html=1;" vertex="1" parent="1">
          <mxGeometry x="319" y="447" width="120" height="80" as="geometry" />
        </mxCell>
        <mxCell id="QpIzt2UrSME0j5kqxRWE-16" value="&amp;lt;&amp;lt;include&amp;gt;&amp;gt;" style="rounded=0;orthogonalLoop=1;jettySize=auto;html=1;exitX=1;exitY=0.5;exitDx=0;exitDy=0;entryX=0;entryY=0.5;entryDx=0;entryDy=0;dashed=1;" edge="1" parent="1" source="QpIzt2UrSME0j5kqxRWE-3" target="QpIzt2UrSME0j5kqxRWE-8">
          <mxGeometry relative="1" as="geometry" />
        </mxCell>
        <mxCell id="QpIzt2UrSME0j5kqxRWE-3" value="게시글 수정" style="ellipse;whiteSpace=wrap;html=1;" vertex="1" parent="1">
          <mxGeometry x="319" y="347" width="120" height="80" as="geometry" />
        </mxCell>
        <mxCell id="QpIzt2UrSME0j5kqxRWE-4" value="&lt;span style=&quot;color: rgb(0, 0, 0); font-family: Helvetica; font-size: 12px; font-style: normal; font-variant-ligatures: normal; font-variant-caps: normal; font-weight: 400; letter-spacing: normal; orphans: 2; text-align: center; text-indent: 0px; text-transform: none; widows: 2; word-spacing: 0px; -webkit-text-stroke-width: 0px; background-color: rgb(251, 251, 251); text-decoration-thickness: initial; text-decoration-style: initial; text-decoration-color: initial; float: none; display: inline !important;&quot;&gt;게시글 전체 조회&lt;/span&gt;" style="ellipse;whiteSpace=wrap;html=1;" vertex="1" parent="1">
          <mxGeometry x="319" y="248" width="120" height="80" as="geometry" />
        </mxCell>
        <mxCell id="QpIzt2UrSME0j5kqxRWE-5" value="게시글 선택 조회" style="ellipse;whiteSpace=wrap;html=1;" vertex="1" parent="1">
          <mxGeometry x="319" y="147" width="120" height="80" as="geometry" />
        </mxCell>
        <mxCell id="QpIzt2UrSME0j5kqxRWE-11" style="rounded=0;orthogonalLoop=1;jettySize=auto;html=1;entryX=0;entryY=0.5;entryDx=0;entryDy=0;" edge="1" parent="1" target="QpIzt2UrSME0j5kqxRWE-1">
          <mxGeometry relative="1" as="geometry">
            <mxPoint x="210" y="290" as="sourcePoint" />
          </mxGeometry>
        </mxCell>
        <mxCell id="QpIzt2UrSME0j5kqxRWE-12" style="rounded=0;orthogonalLoop=1;jettySize=auto;html=1;exitX=1;exitY=0.5;exitDx=0;exitDy=0;entryX=0;entryY=0.5;entryDx=0;entryDy=0;" edge="1" parent="1" source="QpIzt2UrSME0j5kqxRWE-6" target="QpIzt2UrSME0j5kqxRWE-5">
          <mxGeometry relative="1" as="geometry" />
        </mxCell>
        <mxCell id="QpIzt2UrSME0j5kqxRWE-14" style="rounded=0;orthogonalLoop=1;jettySize=auto;html=1;exitX=1;exitY=0.5;exitDx=0;exitDy=0;entryX=0;entryY=0.5;entryDx=0;entryDy=0;" edge="1" parent="1" source="QpIzt2UrSME0j5kqxRWE-6" target="QpIzt2UrSME0j5kqxRWE-3">
          <mxGeometry relative="1" as="geometry" />
        </mxCell>
        <mxCell id="QpIzt2UrSME0j5kqxRWE-15" style="rounded=0;orthogonalLoop=1;jettySize=auto;html=1;exitX=1;exitY=0.5;exitDx=0;exitDy=0;entryX=0;entryY=0.5;entryDx=0;entryDy=0;" edge="1" parent="1" source="QpIzt2UrSME0j5kqxRWE-6" target="QpIzt2UrSME0j5kqxRWE-2">
          <mxGeometry relative="1" as="geometry" />
        </mxCell>
        <mxCell id="QpIzt2UrSME0j5kqxRWE-6" value="클라이언트" style="ellipse;whiteSpace=wrap;html=1;" vertex="1" parent="1">
          <mxGeometry x="90" y="250" width="120" height="80" as="geometry" />
        </mxCell>
        <mxCell id="QpIzt2UrSME0j5kqxRWE-7" style="edgeStyle=orthogonalEdgeStyle;rounded=0;orthogonalLoop=1;jettySize=auto;html=1;exitX=0.5;exitY=1;exitDx=0;exitDy=0;" edge="1" parent="1" source="QpIzt2UrSME0j5kqxRWE-3" target="QpIzt2UrSME0j5kqxRWE-3">
          <mxGeometry relative="1" as="geometry" />
        </mxCell>
        <mxCell id="QpIzt2UrSME0j5kqxRWE-8" value="비밀번호 인증" style="ellipse;whiteSpace=wrap;html=1;" vertex="1" parent="1">
          <mxGeometry x="670" y="390" width="120" height="80" as="geometry" />
        </mxCell>
        <mxCell id="QpIzt2UrSME0j5kqxRWE-13" style="rounded=0;orthogonalLoop=1;jettySize=auto;html=1;exitX=1;exitY=0.5;exitDx=0;exitDy=0;entryX=0;entryY=0.5;entryDx=0;entryDy=0;" edge="1" parent="1" source="QpIzt2UrSME0j5kqxRWE-6" target="QpIzt2UrSME0j5kqxRWE-4">
          <mxGeometry relative="1" as="geometry" />
        </mxCell>
      </root>
    </mxGraphModel>
  </diagram>
</mxfile>
